:version 1.10
:name ASF
:units
  mass 1
  length 1
  angle deg
:documentation
  ASF file generated by Kaydara
:root
  axis xyz
  order  tx ty tz rx ry rz
  position 0 0 0
  orientation 0 0 0
:bonedata
  begin
    id 1
    name RightUpLegDummy
    direction -0.718183 -0.695806 0.00816078
    length 4.904
    axis 0 0 0 xyz
  end
  begin
    id 2
    name RightUpLeg
    direction -0.0736652 -0.994202 0.0783343
    length 17.4976
    axis -2.72909 -3.00389 -4.00133 xyz
    dof rx ry rz
  end
  begin
    id 3
    name RightLeg
    direction -0.0389037 -0.994596 -0.0962598
    length 16.5821
    axis 3.95836 -18.5909 -4.46993 xyz
    dof rx ry rz
  end
  begin
    id 4
    name RightFoot
    direction -0.311643 -0.412678 0.855906
    length 3.77069
    axis -1.99483 -18.8351 -3.27644 xyz
    dof rx ry rz
  end
  begin
    id 5
    name RightToes
    direction -0.317852 0.0389852 0.947339
    length 3.85082
    axis -2.00228 -18.1713 -3.25211 xyz
    dof rx ry rz
  end
  begin
    id 6
    name SpineDummy
    direction 8.3039e-015 1 4.44677e-016
    length 4.6813
    axis 0 0 0 xyz
  end
  begin
    id 7
    name Spine
    direction -0.000262373 0.999988 0.00493267
    length 10.1015
    axis -0.00246081 0.00062579 0.0150362 xyz
    dof rx ry rz
  end
  begin
    id 8
    name Spine1
    direction 0 0 0
    length 0
    axis -0.00349562 0.000650293 0.0196666 xyz
    dof rx ry rz
  end
  begin
    id 9
    name HEadDummy
    direction -0.000343232 0.999999 0.00123745
    length 3.43865
    axis -0.00349562 0.000650293 0.0196666 xyz
  end
  begin
    id 10
    name HEad
    direction -0.0461221 0.980933 0.188796
    length 5.12695
    axis -0.00351404 -7.04812 0.0199272 xyz
    dof rx ry rz
  end
  begin
    id 11
    name LeftShoulder1Dummy
    direction 0.998904 -0.0399089 -0.0244534
    length 3.5433
    axis -0.00349562 0.000650293 0.0196666 xyz
  end
  begin
    id 12
    name LeftShoulder1
    direction 0.99951 1.64443e-005 0.0312999
    length 4.05031
    axis -0.00349562 0.000650293 0.0196666 xyz
    dof rx ry rz
  end
  begin
    id 13
    name LeftArm
    direction 0.984791 0.0515299 0.165927
    length 12.9126
    axis -64.823 -10.7743 5.20463 xyz
    dof rx ry rz
  end
  begin
    id 14
    name LeftForeArm
    direction 0.984968 0.0534808 0.16425
    length 10.8596
    axis -30.0462 -7.70601 1.87451 xyz
    dof rx ry rz
  end
  begin
    id 15
    name LeftHand
    direction 0.975871 0.0289682 0.216418
    length 6.62295
    axis -20.1348 -6.98077 1.86072 xyz
    dof rx ry rz
  end
  begin
    id 16
    name RightShoulderDummy
    direction -0.998877 -0.0405946 -0.0244307
    length 3.5433
    axis -0.00349562 0.000650293 0.0196666 xyz
  end
  begin
    id 17
    name RightShoulder
    direction -0.998933 -0.0249743 -0.0388558
    length 4.05031
    axis -0.0205316 -4.02113 1.41395 xyz
    dof rx ry rz
  end
  begin
    id 18
    name RightArm
    direction -0.997559 0.068664 0.0127103
    length 12.9638
    axis -67.3882 1.84188 -6.15987 xyz
    dof rx ry rz
  end
  begin
    id 19
    name RightForeArm
    direction -0.991508 0.0912848 0.0926241
    length 10.8312
    axis -22.1975 3.41087 -4.28711 xyz
    dof rx ry rz
  end
  begin
    id 20
    name RightHand
    direction -0.989262 0.0600788 0.133232
    length 6.57864
    axis -12.2911 2.17515 -4.39675 xyz
    dof rx ry rz
  end
  begin
    id 21
    name LeftUpLegDummy
    direction 0.718183 -0.695806 0.00816078
    length 4.904
    axis 0 0 0 xyz
  end
  begin
    id 22
    name LeftUpLeg
    direction 0.0831398 -0.99469 0.0606531
    length 17.4976
    axis -1.71016 2.29552 4.63832 xyz
    dof rx ry rz
  end
  begin
    id 23
    name LeftLeg
    direction 0.0498442 -0.991778 -0.117862
    length 16.5821
    axis 5.13757 15.5727 5.13348 xyz
    dof rx ry rz
  end
  begin
    id 24
    name LeftFoot
    direction 0.269026 -0.433896 0.85986
    length 3.77069
    axis -0.576502 15.6961 4.10267 xyz
    dof rx ry rz
  end
  begin
    id 25
    name LeftToes
    direction 0.277311 0.0251143 0.960452
    length 3.85048
    axis -0.576502 15.6961 4.10267 xyz
    dof rx ry rz
  end
:hierarchy
  begin
    root RightUpLegDummy SpineDummy LeftUpLegDummy
    RightUpLegDummy RightUpLeg
    RightUpLeg RightLeg
    RightLeg RightFoot
    RightFoot RightToes
    SpineDummy Spine
    Spine Spine1
    Spine1 HEadDummy LeftShoulder1Dummy RightShoulderDummy
    HEadDummy HEad
    LeftShoulder1Dummy LeftShoulder1
    LeftShoulder1 LeftArm
    LeftArm LeftForeArm
    LeftForeArm LeftHand
    RightShoulderDummy RightShoulder
    RightShoulder RightArm
    RightArm RightForeArm
    RightForeArm RightHand
    LeftUpLegDummy LeftUpLeg
    LeftUpLeg LeftLeg
    LeftLeg LeftFoot
    LeftFoot LeftToes
  end

:SAMPLES-PER-SECOND 30
:FULLY-SPECIFIED
:DEGREES
1
root  2.69538 39.9605 -81.5145 -1.59795 -7.67526 0.46511
RightUpLeg  -0.888613 -0.352588 2.38957
RightLeg  3.95249 -5.4488 0.108146
RightFoot  -2.4889 0.12046 -1.37285
RightToes  5.82077e-011 -3.18055e-015 -2.98177e-016
Spine  -0.899037 0.996539 -0.132019
Spine1  9.14731 0.923162 1.26187
HEad  -16.3206 6.17177 0.534082
LeftShoulder1  -3.88251e-019 9.70628e-020 -3.87848e-018
LeftArm  -25.3655 52.5902 -70.822
LeftForeArm  6.95703 -10.982 -3.41638
LeftHand  -0.773958 -2.74514 11.7897
RightShoulder  7.73692 10.6205 36.3911
RightArm  5.99812 -40.1774 17.9222
RightForeArm  15.0773 15.0831 -6.72543
RightHand  -0.755079 0.468899 -14.6398
LeftUpLeg  -1.23611 -4.0515 -3.22709
LeftLeg  4.39765 7.09436 4.28238
LeftFoot  -2.48132 0.0369953 -0.562526
LeftToes  9.37148e-011 4.50685e-012 -4.11107e-011
2
root  2.68844 39.9605 -81.5155 -1.56462 -7.7535 0.45732
RightUpLeg  -0.938479 -0.330346 2.41178
RightLeg  3.96321 -5.39592 0.111478
RightFoot  -2.47916 0.121655 -1.3851
RightToes  5.82077e-011 -3.18055e-015 -2.98177e-016
Spine  -0.927823 1.03939 -0.110983
Spine1  9.1536 0.975393 1.22102
HEad  -16.4004 6.23177 0.563245
LeftShoulder1  -3.88251e-019 9.70628e-020 -3.87848e-018
LeftArm  -25.4028 52.5876 -70.7984
LeftForeArm  6.80807 -11.0321 -3.36832
LeftHand  -0.714307 -2.14251 11.7855
RightShoulder  7.73807 10.6222 36.3786
RightArm  5.88373 -40.1827 17.9464
RightForeArm  15.8343 15.0557 -6.79032
RightHand  -0.799862 1.12474 -14.0072
LeftUpLeg  -1.26298 -4.00814 -3.19327
LeftLeg  4.40427 7.12168 4.26583
LeftFoot  -2.48787 0.0386423 -0.579832
LeftToes  9.37148e-011 4.50685e-012 -4.11107e-011
3
root  2.67678 39.9605 -81.5208 -1.50045 -7.84562 0.439952
RightUpLeg  -1.02938 -0.291941 2.45478
RightLeg  3.98214 -5.34171 0.116967
RightFoot  -2.46687 0.125968 -1.42936
RightToes  5.82077e-011 -3.18055e-015 -2.98177e-016
Spine  -0.94075 1.09998 -0.0683809
Spine1  9.12915 1.05471 1.13927
HEad  -16.5453 6.24096 0.567513
LeftShoulder1  -3.88251e-019 9.70628e-020 -3.87848e-018
LeftArm  -25.4224 52.5757 -70.7503
LeftForeArm  6.78405 -11.0608 -3.3138
LeftHand  -0.66094 -1.58694 11.8106
RightShoulder  7.75341 10.6277 36.4459
RightArm  5.82749 -40.1426 17.8745
RightForeArm  16.8552 15.0705 -6.89916
RightHand  -0.860496 2.1186 -13.1138
LeftUpLeg  -1.3343 -3.95162 -3.13755
LeftLeg  4.4242 7.14224 4.25244
LeftFoot  -2.49275 0.0416772 -0.611719
LeftToes  9.37148e-011 4.50685e-012 -4.11107e-011
4
root  2.66516 39.9605 -81.5286 -1.46204 -7.85646 0.417808
RightUpLeg  -1.0804 -0.248751 2.50736
RightLeg  3.99166 -5.3742 0.107764
RightFoot  -2.47009 0.129793 -1.46861
RightToes  5.82077e-011 -3.18055e-015 -2.98177e-016
Spine  -0.922802 1.11804 -0.0802277
Spine1  9.13858 1.06949 1.14739
HEad  -16.6765 6.1672 0.50062
LeftShoulder1  -3.88251e-019 9.70628e-020 -3.87848e-018
LeftArm  -25.4311 52.5521 -70.7444
LeftForeArm  6.86183 -11.0637 -3.30926
LeftHand  -0.668795 -1.55573 12.0033
RightShoulder  7.77901 10.6394 36.5475
RightArm  5.99015 -40.0525 17.7809
RightForeArm  16.9544 15.1791 -6.94689
RightHand  -0.870061 2.40501 -12.7936
LeftUpLeg  -1.40155 -3.90409 -3.07967
LeftLeg  4.45997 7.09756 4.2453
LeftFoot  -2.49743 0.0436905 -0.632874
LeftToes  9.37148e-011 4.50685e-012 -4.11107e-011
5
root  2.65459 39.9605 -81.5344 -1.47389 -7.81073 0.404062
RightUpLeg  -1.06944 -0.220427 2.54686
RightLeg  4.00128 -5.45001 0.0852394
RightFoot  -2.49523 0.129097 -1.46147
RightToes  5.82077e-011 -3.18055e-015 -2.98177e-016
Spine  -0.915486 1.09421 -0.193455
Spine1  9.25743 1.00207 1.32518
HEad  -16.8507 6.13345 0.386152
LeftShoulder1  -3.88251e-019 9.70628e-020 -3.87848e-018
LeftArm  -25.5724 52.5312 -70.7868
LeftForeArm  6.72141 -11.1196 -3.28265
LeftHand  -0.680359 -1.78581 11.8071
RightShoulder  7.78336 10.6416 36.5642
RightArm  6.24475 -39.9571 17.8219
RightForeArm  16.2062 15.3287 -6.92745
RightHand  -0.8356 1.91934 -13.0807
LeftUpLeg  -1.41857 -3.86285 -3.03291
LeftLeg  4.4959 7.01247 4.23083
LeftFoot  -2.50104 0.043225 -0.627983
LeftToes  9.37148e-011 4.50685e-012 -4.11107e-011
6
root  2.64466 39.9605 -81.5374 -1.49655 -7.78011 0.412338
RightUpLeg  -1.06414 -0.225208 2.55094
RightLeg  4.04372 -5.46668 0.0663427
RightFoot  -2.53183 0.126042 -1.43012
RightToes  5.82077e-011 -3.18055e-015 -2.98177e-016
Spine  -0.949758 1.07926 -0.346268
Spine1  9.4499 0.93034 1.56366
HEad  -17.1522 6.21422 0.287185
LeftShoulder1  -3.88251e-019 9.70628e-020 -3.87848e-018
LeftArm  -25.8633 52.5199 -70.798
LeftForeArm  6.37718 -11.2389 -3.16008
LeftHand  -0.642275 -2.09035 10.6949
RightShoulder  7.77187 10.6349 36.5219
RightArm  6.38311 -39.8813 17.9374
RightForeArm  15.6725 15.4508 -6.9421
RightHand  -0.817365 1.58113 -13.3906
LeftUpLeg  -1.40501 -3.84314 -3.0152
LeftLeg  4.50429 6.95844 4.21276
LeftFoot  -2.50151 0.0420625 -0.615768
LeftToes  9.37148e-011 4.50685e-012 -4.11107e-011
7
root  2.63403 39.9605 -81.5405 -1.48931 -7.77954 0.430869
RightUpLeg  -1.11204 -0.235589 2.54444
RightLeg  4.11607 -5.43759 0.04684
RightFoot  -2.56216 0.125551 -1.42508
RightToes  5.82077e-011 -3.18055e-015 -2.98177e-016
Spine  -1.03461 1.10004 -0.456728
Spine1  9.66938 0.911553 1.73277
HEad  -17.4488 6.35168 0.252823
LeftShoulder1  -3.88251e-019 9.70628e-020 -3.87848e-018
LeftArm  -26.1074 52.5277 -70.7663
LeftForeArm  6.20851 -11.3654 -3.01853
LeftHand  -0.599591 -2.53624 9.42911
RightShoulder  7.76672 10.6286 36.5104
RightArm  6.37765 -39.8208 17.9856
RightForeArm  15.7985 15.5484 -7.04868
RightHand  -0.849035 1.88423 -13.3508
LeftUpLeg  -1.41197 -3.84594 -3.01482
LeftLeg  4.49185 6.94896 4.20532
LeftFoot  -2.4957 0.0438195 -0.634229
LeftToes  9.37148e-011 4.50685e-012 -4.11107e-011
